<mxfile host="app.diagrams.net" modified="2023-10-20T09:43:06.267Z" agent="Mozilla/5.0 (Windows NT 10.0; Win64; x64) AppleWebKit/537.36 (KHTML, like Gecko) Chrome/118.0.0.0 Safari/537.36" etag="Pwl8DXFAtivJWHzXU8GM" version="22.0.5" type="github">
  <diagram id="C5RBs43oDa-KdzZeNtuy" name="Page-1">
    <mxGraphModel dx="2129" dy="717" grid="1" gridSize="10" guides="1" tooltips="1" connect="1" arrows="1" fold="1" page="1" pageScale="1" pageWidth="827" pageHeight="1169" math="0" shadow="0">
      <root>
        <mxCell id="WIyWlLk6GJQsqaUBKTNV-0" />
        <mxCell id="WIyWlLk6GJQsqaUBKTNV-1" parent="WIyWlLk6GJQsqaUBKTNV-0" />
        <mxCell id="irWFzQ0VpNB4I3aMJ_KA-0" value="Cell" style="swimlane;fontStyle=0;childLayout=stackLayout;horizontal=1;startSize=26;fillColor=none;horizontalStack=0;resizeParent=1;resizeParentMax=0;resizeLast=0;collapsible=1;marginBottom=0;whiteSpace=wrap;html=1;" vertex="1" parent="WIyWlLk6GJQsqaUBKTNV-1">
          <mxGeometry x="-480" y="640" width="240" height="144" as="geometry" />
        </mxCell>
        <mxCell id="irWFzQ0VpNB4I3aMJ_KA-1" value="- CellPassible: bool" style="text;strokeColor=none;fillColor=none;align=left;verticalAlign=top;spacingLeft=4;spacingRight=4;overflow=hidden;rotatable=0;points=[[0,0.5],[1,0.5]];portConstraint=eastwest;whiteSpace=wrap;html=1;" vertex="1" parent="irWFzQ0VpNB4I3aMJ_KA-0">
          <mxGeometry y="26" width="240" height="26" as="geometry" />
        </mxCell>
        <mxCell id="irWFzQ0VpNB4I3aMJ_KA-19" value="" style="line;strokeWidth=1;fillColor=none;align=left;verticalAlign=middle;spacingTop=-1;spacingLeft=3;spacingRight=3;rotatable=0;labelPosition=right;points=[];portConstraint=eastwest;strokeColor=inherit;" vertex="1" parent="irWFzQ0VpNB4I3aMJ_KA-0">
          <mxGeometry y="52" width="240" height="8" as="geometry" />
        </mxCell>
        <mxCell id="irWFzQ0VpNB4I3aMJ_KA-2" value="+ Cell(bool): Cell" style="text;strokeColor=none;fillColor=none;align=left;verticalAlign=top;spacingLeft=4;spacingRight=4;overflow=hidden;rotatable=0;points=[[0,0.5],[1,0.5]];portConstraint=eastwest;whiteSpace=wrap;html=1;" vertex="1" parent="irWFzQ0VpNB4I3aMJ_KA-0">
          <mxGeometry y="60" width="240" height="26" as="geometry" />
        </mxCell>
        <mxCell id="irWFzQ0VpNB4I3aMJ_KA-3" value="+ getCellPassible const(): bool&lt;br&gt;" style="text;strokeColor=none;fillColor=none;align=left;verticalAlign=top;spacingLeft=4;spacingRight=4;overflow=hidden;rotatable=0;points=[[0,0.5],[1,0.5]];portConstraint=eastwest;whiteSpace=wrap;html=1;" vertex="1" parent="irWFzQ0VpNB4I3aMJ_KA-0">
          <mxGeometry y="86" width="240" height="32" as="geometry" />
        </mxCell>
        <mxCell id="irWFzQ0VpNB4I3aMJ_KA-17" value="+ setCellPassible(): void" style="text;strokeColor=none;fillColor=none;align=left;verticalAlign=top;spacingLeft=4;spacingRight=4;overflow=hidden;rotatable=0;points=[[0,0.5],[1,0.5]];portConstraint=eastwest;whiteSpace=wrap;html=1;" vertex="1" parent="irWFzQ0VpNB4I3aMJ_KA-0">
          <mxGeometry y="118" width="240" height="26" as="geometry" />
        </mxCell>
        <mxCell id="irWFzQ0VpNB4I3aMJ_KA-4" value="Player" style="swimlane;fontStyle=0;childLayout=stackLayout;horizontal=1;startSize=26;fillColor=none;horizontalStack=0;resizeParent=1;resizeParentMax=0;resizeLast=0;collapsible=1;marginBottom=0;whiteSpace=wrap;html=1;" vertex="1" parent="WIyWlLk6GJQsqaUBKTNV-1">
          <mxGeometry x="450" y="200" width="330" height="242" as="geometry" />
        </mxCell>
        <mxCell id="irWFzQ0VpNB4I3aMJ_KA-5" value="+ health: int" style="text;strokeColor=none;fillColor=none;align=left;verticalAlign=top;spacingLeft=4;spacingRight=4;overflow=hidden;rotatable=0;points=[[0,0.5],[1,0.5]];portConstraint=eastwest;whiteSpace=wrap;html=1;" vertex="1" parent="irWFzQ0VpNB4I3aMJ_KA-4">
          <mxGeometry y="26" width="330" height="26" as="geometry" />
        </mxCell>
        <mxCell id="irWFzQ0VpNB4I3aMJ_KA-6" value="+ score: int" style="text;strokeColor=none;fillColor=none;align=left;verticalAlign=top;spacingLeft=4;spacingRight=4;overflow=hidden;rotatable=0;points=[[0,0.5],[1,0.5]];portConstraint=eastwest;whiteSpace=wrap;html=1;" vertex="1" parent="irWFzQ0VpNB4I3aMJ_KA-4">
          <mxGeometry y="52" width="330" height="26" as="geometry" />
        </mxCell>
        <mxCell id="irWFzQ0VpNB4I3aMJ_KA-57" value="" style="line;strokeWidth=1;fillColor=none;align=left;verticalAlign=middle;spacingTop=-1;spacingLeft=3;spacingRight=3;rotatable=0;labelPosition=right;points=[];portConstraint=eastwest;strokeColor=inherit;" vertex="1" parent="irWFzQ0VpNB4I3aMJ_KA-4">
          <mxGeometry y="78" width="330" height="8" as="geometry" />
        </mxCell>
        <mxCell id="irWFzQ0VpNB4I3aMJ_KA-7" value="+ Player(int health, int score): Player" style="text;strokeColor=none;fillColor=none;align=left;verticalAlign=top;spacingLeft=4;spacingRight=4;overflow=hidden;rotatable=0;points=[[0,0.5],[1,0.5]];portConstraint=eastwest;whiteSpace=wrap;html=1;" vertex="1" parent="irWFzQ0VpNB4I3aMJ_KA-4">
          <mxGeometry y="86" width="330" height="26" as="geometry" />
        </mxCell>
        <mxCell id="irWFzQ0VpNB4I3aMJ_KA-59" value="+ getHealth() const: int" style="text;strokeColor=none;fillColor=none;align=left;verticalAlign=top;spacingLeft=4;spacingRight=4;overflow=hidden;rotatable=0;points=[[0,0.5],[1,0.5]];portConstraint=eastwest;whiteSpace=wrap;html=1;" vertex="1" parent="irWFzQ0VpNB4I3aMJ_KA-4">
          <mxGeometry y="112" width="330" height="26" as="geometry" />
        </mxCell>
        <mxCell id="irWFzQ0VpNB4I3aMJ_KA-58" value="+ getScore() const: int" style="text;strokeColor=none;fillColor=none;align=left;verticalAlign=top;spacingLeft=4;spacingRight=4;overflow=hidden;rotatable=0;points=[[0,0.5],[1,0.5]];portConstraint=eastwest;whiteSpace=wrap;html=1;" vertex="1" parent="irWFzQ0VpNB4I3aMJ_KA-4">
          <mxGeometry y="138" width="330" height="26" as="geometry" />
        </mxCell>
        <mxCell id="irWFzQ0VpNB4I3aMJ_KA-61" value="+ setHealth(int health): void" style="text;strokeColor=none;fillColor=none;align=left;verticalAlign=top;spacingLeft=4;spacingRight=4;overflow=hidden;rotatable=0;points=[[0,0.5],[1,0.5]];portConstraint=eastwest;whiteSpace=wrap;html=1;" vertex="1" parent="irWFzQ0VpNB4I3aMJ_KA-4">
          <mxGeometry y="164" width="330" height="26" as="geometry" />
        </mxCell>
        <mxCell id="irWFzQ0VpNB4I3aMJ_KA-60" value="+ setScore(int score): void" style="text;strokeColor=none;fillColor=none;align=left;verticalAlign=top;spacingLeft=4;spacingRight=4;overflow=hidden;rotatable=0;points=[[0,0.5],[1,0.5]];portConstraint=eastwest;whiteSpace=wrap;html=1;" vertex="1" parent="irWFzQ0VpNB4I3aMJ_KA-4">
          <mxGeometry y="190" width="330" height="26" as="geometry" />
        </mxCell>
        <mxCell id="irWFzQ0VpNB4I3aMJ_KA-62" value="+ ~Player(): Player" style="text;strokeColor=none;fillColor=none;align=left;verticalAlign=top;spacingLeft=4;spacingRight=4;overflow=hidden;rotatable=0;points=[[0,0.5],[1,0.5]];portConstraint=eastwest;whiteSpace=wrap;html=1;" vertex="1" parent="irWFzQ0VpNB4I3aMJ_KA-4">
          <mxGeometry y="216" width="330" height="26" as="geometry" />
        </mxCell>
        <mxCell id="irWFzQ0VpNB4I3aMJ_KA-12" value="Gamefield" style="swimlane;fontStyle=0;childLayout=stackLayout;horizontal=1;startSize=26;fillColor=none;horizontalStack=0;resizeParent=1;resizeParentMax=0;resizeLast=0;collapsible=1;marginBottom=0;whiteSpace=wrap;html=1;" vertex="1" parent="WIyWlLk6GJQsqaUBKTNV-1">
          <mxGeometry x="-480" y="70" width="300" height="398" as="geometry">
            <mxRectangle x="414" y="270" width="100" height="30" as="alternateBounds" />
          </mxGeometry>
        </mxCell>
        <mxCell id="irWFzQ0VpNB4I3aMJ_KA-22" value="- height: int" style="text;strokeColor=none;fillColor=none;align=left;verticalAlign=top;spacingLeft=4;spacingRight=4;overflow=hidden;rotatable=0;points=[[0,0.5],[1,0.5]];portConstraint=eastwest;whiteSpace=wrap;html=1;" vertex="1" parent="irWFzQ0VpNB4I3aMJ_KA-12">
          <mxGeometry y="26" width="300" height="26" as="geometry" />
        </mxCell>
        <mxCell id="irWFzQ0VpNB4I3aMJ_KA-13" value="- width: int" style="text;strokeColor=none;fillColor=none;align=left;verticalAlign=top;spacingLeft=4;spacingRight=4;overflow=hidden;rotatable=0;points=[[0,0.5],[1,0.5]];portConstraint=eastwest;whiteSpace=wrap;html=1;" vertex="1" parent="irWFzQ0VpNB4I3aMJ_KA-12">
          <mxGeometry y="52" width="300" height="26" as="geometry" />
        </mxCell>
        <mxCell id="irWFzQ0VpNB4I3aMJ_KA-23" value="-start: pair&amp;lt;int, int&amp;gt;" style="text;strokeColor=none;fillColor=none;align=left;verticalAlign=top;spacingLeft=4;spacingRight=4;overflow=hidden;rotatable=0;points=[[0,0.5],[1,0.5]];portConstraint=eastwest;whiteSpace=wrap;html=1;" vertex="1" parent="irWFzQ0VpNB4I3aMJ_KA-12">
          <mxGeometry y="78" width="300" height="26" as="geometry" />
        </mxCell>
        <mxCell id="irWFzQ0VpNB4I3aMJ_KA-24" value="-finish: pair&amp;lt;int, int&amp;gt;" style="text;strokeColor=none;fillColor=none;align=left;verticalAlign=top;spacingLeft=4;spacingRight=4;overflow=hidden;rotatable=0;points=[[0,0.5],[1,0.5]];portConstraint=eastwest;whiteSpace=wrap;html=1;" vertex="1" parent="irWFzQ0VpNB4I3aMJ_KA-12">
          <mxGeometry y="104" width="300" height="26" as="geometry" />
        </mxCell>
        <mxCell id="irWFzQ0VpNB4I3aMJ_KA-14" value="-gamefield Cell**" style="text;strokeColor=none;fillColor=none;align=left;verticalAlign=top;spacingLeft=4;spacingRight=4;overflow=hidden;rotatable=0;points=[[0,0.5],[1,0.5]];portConstraint=eastwest;whiteSpace=wrap;html=1;" vertex="1" parent="irWFzQ0VpNB4I3aMJ_KA-12">
          <mxGeometry y="130" width="300" height="26" as="geometry" />
        </mxCell>
        <mxCell id="irWFzQ0VpNB4I3aMJ_KA-21" value="" style="line;strokeWidth=1;fillColor=none;align=left;verticalAlign=middle;spacingTop=-1;spacingLeft=3;spacingRight=3;rotatable=0;labelPosition=right;points=[];portConstraint=eastwest;strokeColor=inherit;" vertex="1" parent="irWFzQ0VpNB4I3aMJ_KA-12">
          <mxGeometry y="156" width="300" height="8" as="geometry" />
        </mxCell>
        <mxCell id="irWFzQ0VpNB4I3aMJ_KA-15" value="+Gamefield(int width, int height): Gamefield" style="text;strokeColor=none;fillColor=none;align=left;verticalAlign=top;spacingLeft=4;spacingRight=4;overflow=hidden;rotatable=0;points=[[0,0.5],[1,0.5]];portConstraint=eastwest;whiteSpace=wrap;html=1;" vertex="1" parent="irWFzQ0VpNB4I3aMJ_KA-12">
          <mxGeometry y="164" width="300" height="26" as="geometry" />
        </mxCell>
        <mxCell id="irWFzQ0VpNB4I3aMJ_KA-25" value="+Gamefield(Gamefield&amp;amp;): Gamefield" style="text;strokeColor=none;fillColor=none;align=left;verticalAlign=top;spacingLeft=4;spacingRight=4;overflow=hidden;rotatable=0;points=[[0,0.5],[1,0.5]];portConstraint=eastwest;whiteSpace=wrap;html=1;" vertex="1" parent="irWFzQ0VpNB4I3aMJ_KA-12">
          <mxGeometry y="190" width="300" height="26" as="geometry" />
        </mxCell>
        <mxCell id="irWFzQ0VpNB4I3aMJ_KA-26" value="+Gamefield(Gamefield&amp;amp;&amp;amp;): Gamefield" style="text;strokeColor=none;fillColor=none;align=left;verticalAlign=top;spacingLeft=4;spacingRight=4;overflow=hidden;rotatable=0;points=[[0,0.5],[1,0.5]];portConstraint=eastwest;whiteSpace=wrap;html=1;" vertex="1" parent="irWFzQ0VpNB4I3aMJ_KA-12">
          <mxGeometry y="216" width="300" height="26" as="geometry" />
        </mxCell>
        <mxCell id="irWFzQ0VpNB4I3aMJ_KA-28" value="+getCell(int,int): Cell&amp;amp;" style="text;strokeColor=none;fillColor=none;align=left;verticalAlign=top;spacingLeft=4;spacingRight=4;overflow=hidden;rotatable=0;points=[[0,0.5],[1,0.5]];portConstraint=eastwest;whiteSpace=wrap;html=1;" vertex="1" parent="irWFzQ0VpNB4I3aMJ_KA-12">
          <mxGeometry y="242" width="300" height="26" as="geometry" />
        </mxCell>
        <mxCell id="irWFzQ0VpNB4I3aMJ_KA-27" value="+~Gamefield(): None" style="text;strokeColor=none;fillColor=none;align=left;verticalAlign=top;spacingLeft=4;spacingRight=4;overflow=hidden;rotatable=0;points=[[0,0.5],[1,0.5]];portConstraint=eastwest;whiteSpace=wrap;html=1;" vertex="1" parent="irWFzQ0VpNB4I3aMJ_KA-12">
          <mxGeometry y="268" width="300" height="26" as="geometry" />
        </mxCell>
        <mxCell id="irWFzQ0VpNB4I3aMJ_KA-29" value="+checkCoords(pair&amp;lt;int,int&amp;gt;, pair&amp;lt;int,int&amp;gt;, value): int" style="text;strokeColor=none;fillColor=none;align=left;verticalAlign=top;spacingLeft=4;spacingRight=4;overflow=hidden;rotatable=0;points=[[0,0.5],[1,0.5]];portConstraint=eastwest;whiteSpace=wrap;html=1;" vertex="1" parent="irWFzQ0VpNB4I3aMJ_KA-12">
          <mxGeometry y="294" width="300" height="26" as="geometry" />
        </mxCell>
        <mxCell id="irWFzQ0VpNB4I3aMJ_KA-30" value="+getWidth() const: int" style="text;strokeColor=none;fillColor=none;align=left;verticalAlign=top;spacingLeft=4;spacingRight=4;overflow=hidden;rotatable=0;points=[[0,0.5],[1,0.5]];portConstraint=eastwest;whiteSpace=wrap;html=1;" vertex="1" parent="irWFzQ0VpNB4I3aMJ_KA-12">
          <mxGeometry y="320" width="300" height="26" as="geometry" />
        </mxCell>
        <mxCell id="irWFzQ0VpNB4I3aMJ_KA-32" value="+getHeight() const: int" style="text;strokeColor=none;fillColor=none;align=left;verticalAlign=top;spacingLeft=4;spacingRight=4;overflow=hidden;rotatable=0;points=[[0,0.5],[1,0.5]];portConstraint=eastwest;whiteSpace=wrap;html=1;" vertex="1" parent="irWFzQ0VpNB4I3aMJ_KA-12">
          <mxGeometry y="346" width="300" height="26" as="geometry" />
        </mxCell>
        <mxCell id="irWFzQ0VpNB4I3aMJ_KA-31" value="+getStart() const: pair&amp;lt;int, int&amp;gt;" style="text;strokeColor=none;fillColor=none;align=left;verticalAlign=top;spacingLeft=4;spacingRight=4;overflow=hidden;rotatable=0;points=[[0,0.5],[1,0.5]];portConstraint=eastwest;whiteSpace=wrap;html=1;" vertex="1" parent="irWFzQ0VpNB4I3aMJ_KA-12">
          <mxGeometry y="372" width="300" height="26" as="geometry" />
        </mxCell>
        <mxCell id="irWFzQ0VpNB4I3aMJ_KA-42" value="Playercontroller" style="swimlane;fontStyle=0;childLayout=stackLayout;horizontal=1;startSize=26;fillColor=none;horizontalStack=0;resizeParent=1;resizeParentMax=0;resizeLast=0;collapsible=1;marginBottom=0;whiteSpace=wrap;html=1;" vertex="1" parent="WIyWlLk6GJQsqaUBKTNV-1">
          <mxGeometry x="-90" y="510" width="340" height="352" as="geometry" />
        </mxCell>
        <mxCell id="irWFzQ0VpNB4I3aMJ_KA-43" value="- x, y: int" style="text;strokeColor=none;fillColor=none;align=left;verticalAlign=top;spacingLeft=4;spacingRight=4;overflow=hidden;rotatable=0;points=[[0,0.5],[1,0.5]];portConstraint=eastwest;whiteSpace=wrap;html=1;" vertex="1" parent="irWFzQ0VpNB4I3aMJ_KA-42">
          <mxGeometry y="26" width="340" height="26" as="geometry" />
        </mxCell>
        <mxCell id="irWFzQ0VpNB4I3aMJ_KA-48" value="- player: Player&amp;amp;" style="text;strokeColor=none;fillColor=none;align=left;verticalAlign=top;spacingLeft=4;spacingRight=4;overflow=hidden;rotatable=0;points=[[0,0.5],[1,0.5]];portConstraint=eastwest;whiteSpace=wrap;html=1;" vertex="1" parent="irWFzQ0VpNB4I3aMJ_KA-42">
          <mxGeometry y="52" width="340" height="26" as="geometry" />
        </mxCell>
        <mxCell id="irWFzQ0VpNB4I3aMJ_KA-49" value="- gamefield: Gamefield&amp;amp;" style="text;strokeColor=none;fillColor=none;align=left;verticalAlign=top;spacingLeft=4;spacingRight=4;overflow=hidden;rotatable=0;points=[[0,0.5],[1,0.5]];portConstraint=eastwest;whiteSpace=wrap;html=1;" vertex="1" parent="irWFzQ0VpNB4I3aMJ_KA-42">
          <mxGeometry y="78" width="340" height="26" as="geometry" />
        </mxCell>
        <mxCell id="irWFzQ0VpNB4I3aMJ_KA-44" value="" style="line;strokeWidth=1;fillColor=none;align=left;verticalAlign=middle;spacingTop=-1;spacingLeft=3;spacingRight=3;rotatable=0;labelPosition=right;points=[];portConstraint=eastwest;strokeColor=inherit;" vertex="1" parent="irWFzQ0VpNB4I3aMJ_KA-42">
          <mxGeometry y="104" width="340" height="8" as="geometry" />
        </mxCell>
        <mxCell id="irWFzQ0VpNB4I3aMJ_KA-45" value="+ Playercontroller(Player&amp;amp; p, Gamefield&amp;amp; f) : Playercontroller" style="text;strokeColor=none;fillColor=none;align=left;verticalAlign=top;spacingLeft=4;spacingRight=4;overflow=hidden;rotatable=0;points=[[0,0.5],[1,0.5]];portConstraint=eastwest;whiteSpace=wrap;html=1;" vertex="1" parent="irWFzQ0VpNB4I3aMJ_KA-42">
          <mxGeometry y="112" width="340" height="26" as="geometry" />
        </mxCell>
        <mxCell id="irWFzQ0VpNB4I3aMJ_KA-46" value="+ move(Direction direction): move" style="text;strokeColor=none;fillColor=none;align=left;verticalAlign=top;spacingLeft=4;spacingRight=4;overflow=hidden;rotatable=0;points=[[0,0.5],[1,0.5]];portConstraint=eastwest;whiteSpace=wrap;html=1;" vertex="1" parent="irWFzQ0VpNB4I3aMJ_KA-42">
          <mxGeometry y="138" width="340" height="32" as="geometry" />
        </mxCell>
        <mxCell id="irWFzQ0VpNB4I3aMJ_KA-47" value="+ getScore(int score) : void" style="text;strokeColor=none;fillColor=none;align=left;verticalAlign=top;spacingLeft=4;spacingRight=4;overflow=hidden;rotatable=0;points=[[0,0.5],[1,0.5]];portConstraint=eastwest;whiteSpace=wrap;html=1;" vertex="1" parent="irWFzQ0VpNB4I3aMJ_KA-42">
          <mxGeometry y="170" width="340" height="26" as="geometry" />
        </mxCell>
        <mxCell id="irWFzQ0VpNB4I3aMJ_KA-50" value="+ getHealth(int health) : void" style="text;strokeColor=none;fillColor=none;align=left;verticalAlign=top;spacingLeft=4;spacingRight=4;overflow=hidden;rotatable=0;points=[[0,0.5],[1,0.5]];portConstraint=eastwest;whiteSpace=wrap;html=1;" vertex="1" parent="irWFzQ0VpNB4I3aMJ_KA-42">
          <mxGeometry y="196" width="340" height="26" as="geometry" />
        </mxCell>
        <mxCell id="irWFzQ0VpNB4I3aMJ_KA-51" value="+ showCoords() : void" style="text;strokeColor=none;fillColor=none;align=left;verticalAlign=top;spacingLeft=4;spacingRight=4;overflow=hidden;rotatable=0;points=[[0,0.5],[1,0.5]];portConstraint=eastwest;whiteSpace=wrap;html=1;" vertex="1" parent="irWFzQ0VpNB4I3aMJ_KA-42">
          <mxGeometry y="222" width="340" height="26" as="geometry" />
        </mxCell>
        <mxCell id="irWFzQ0VpNB4I3aMJ_KA-52" value="+ printField() : void" style="text;strokeColor=none;fillColor=none;align=left;verticalAlign=top;spacingLeft=4;spacingRight=4;overflow=hidden;rotatable=0;points=[[0,0.5],[1,0.5]];portConstraint=eastwest;whiteSpace=wrap;html=1;" vertex="1" parent="irWFzQ0VpNB4I3aMJ_KA-42">
          <mxGeometry y="248" width="340" height="26" as="geometry" />
        </mxCell>
        <mxCell id="irWFzQ0VpNB4I3aMJ_KA-53" value="+ stats() : void" style="text;strokeColor=none;fillColor=none;align=left;verticalAlign=top;spacingLeft=4;spacingRight=4;overflow=hidden;rotatable=0;points=[[0,0.5],[1,0.5]];portConstraint=eastwest;whiteSpace=wrap;html=1;" vertex="1" parent="irWFzQ0VpNB4I3aMJ_KA-42">
          <mxGeometry y="274" width="340" height="26" as="geometry" />
        </mxCell>
        <mxCell id="irWFzQ0VpNB4I3aMJ_KA-54" value="+ check(int x, int y) : bool" style="text;strokeColor=none;fillColor=none;align=left;verticalAlign=top;spacingLeft=4;spacingRight=4;overflow=hidden;rotatable=0;points=[[0,0.5],[1,0.5]];portConstraint=eastwest;whiteSpace=wrap;html=1;" vertex="1" parent="irWFzQ0VpNB4I3aMJ_KA-42">
          <mxGeometry y="300" width="340" height="26" as="geometry" />
        </mxCell>
        <mxCell id="irWFzQ0VpNB4I3aMJ_KA-55" value="+ ~Playercontroller(): Playercontroller" style="text;strokeColor=none;fillColor=none;align=left;verticalAlign=top;spacingLeft=4;spacingRight=4;overflow=hidden;rotatable=0;points=[[0,0.5],[1,0.5]];portConstraint=eastwest;whiteSpace=wrap;html=1;" vertex="1" parent="irWFzQ0VpNB4I3aMJ_KA-42">
          <mxGeometry y="326" width="340" height="26" as="geometry" />
        </mxCell>
        <mxCell id="irWFzQ0VpNB4I3aMJ_KA-63" value="" style="endArrow=diamondThin;endFill=1;endSize=24;html=1;rounded=0;entryX=0.538;entryY=1.009;entryDx=0;entryDy=0;entryPerimeter=0;exitX=0.459;exitY=-0.002;exitDx=0;exitDy=0;exitPerimeter=0;" edge="1" parent="WIyWlLk6GJQsqaUBKTNV-1" source="irWFzQ0VpNB4I3aMJ_KA-0" target="irWFzQ0VpNB4I3aMJ_KA-31">
          <mxGeometry width="160" relative="1" as="geometry">
            <mxPoint x="-370" y="580" as="sourcePoint" />
            <mxPoint x="-270" y="520" as="targetPoint" />
            <Array as="points">
              <mxPoint x="-370" y="520" />
              <mxPoint x="-320" y="520" />
            </Array>
          </mxGeometry>
        </mxCell>
        <mxCell id="irWFzQ0VpNB4I3aMJ_KA-65" value="" style="endArrow=diamondThin;endFill=0;endSize=24;html=1;rounded=0;entryX=0.39;entryY=-0.01;entryDx=0;entryDy=0;entryPerimeter=0;" edge="1" parent="WIyWlLk6GJQsqaUBKTNV-1">
          <mxGeometry width="160" relative="1" as="geometry">
            <mxPoint x="-180" y="284.21999999999997" as="sourcePoint" />
            <mxPoint x="42.59999999999991" y="510" as="targetPoint" />
            <Array as="points">
              <mxPoint x="-60" y="284.21999999999997" />
              <mxPoint x="40" y="284.21999999999997" />
            </Array>
          </mxGeometry>
        </mxCell>
        <mxCell id="irWFzQ0VpNB4I3aMJ_KA-66" value="" style="endArrow=diamondThin;endFill=0;endSize=24;html=1;rounded=0;entryX=0.991;entryY=0.013;entryDx=0;entryDy=0;entryPerimeter=0;exitX=0;exitY=0.277;exitDx=0;exitDy=0;exitPerimeter=0;" edge="1" parent="WIyWlLk6GJQsqaUBKTNV-1" source="irWFzQ0VpNB4I3aMJ_KA-59">
          <mxGeometry width="160" relative="1" as="geometry">
            <mxPoint x="440" y="320" as="sourcePoint" />
            <mxPoint x="250.00000000000006" y="680.338" as="targetPoint" />
            <Array as="points">
              <mxPoint x="313.06" y="320" />
              <mxPoint x="313.06" y="680" />
            </Array>
          </mxGeometry>
        </mxCell>
      </root>
    </mxGraphModel>
  </diagram>
</mxfile>
